<?xml version="1.0" standalone="no"?><!DOCTYPE svg PUBLIC "-//W3C//DTD SVG 1.1//EN" "http://www.w3.org/Graphics/SVG/1.1/DTD/svg11.dtd"><svg t="1568195698856" class="icon" viewBox="0 0 1024 1024" version="1.1" xmlns="http://www.w3.org/2000/svg" p-id="6372" xmlns:xlink="http://www.w3.org/1999/xlink" width="200" height="200"><defs><style type="text/css"></style></defs><path d="M304.0256 560.6912l163.0208 146.07360001a41.6768 41.6768 0 0 0 54.3232-1e-8 31.9488 31.9488 0 0 0 0-48.6912L358.4 512l162.9696-146.0736a31.9488 31.9488 0 0 0 0-48.6912 41.6768 41.6768 0 0 0-54.3232-1e-8l-163.0208 146.07360001a64.0512 64.0512 0 0 0 0 97.3824z m209.8688 0L676.86399999 706.7136a41.6768 41.6768 0 0 0 54.32320001 0 32.0512 32.0512 0 0 0-1e-8-48.6912L568.2176 512l162.9696-146.0736a32.0512 32.0512 0 0 0 0-48.69120001 41.6768 41.6768 0 0 0-54.3232 1e-8l-162.9696 146.0736a63.9488 63.9488 0 0 0 0 97.3824z" p-id="6373"></path></svg>