<?xml version="1.0" standalone="no"?><!DOCTYPE svg PUBLIC "-//W3C//DTD SVG 1.1//EN" "http://www.w3.org/Graphics/SVG/1.1/DTD/svg11.dtd"><svg t="1559290867621" class="icon" style="" viewBox="0 0 1024 1024" version="1.1" xmlns="http://www.w3.org/2000/svg" p-id="6424" xmlns:xlink="http://www.w3.org/1999/xlink" width="200" height="200"><defs><style type="text/css"></style></defs><path d="M789.165 152.589L509.64 432.114 230.118 152.592c-22.051-22.051-57.811-22.051-79.862 0.001s-22.052 57.811-0.001 79.862l279.522 279.522-279.525 279.525c-22.052 22.052-22.052 57.811-0.001 79.862 22.052 22.052 57.811 22.052 79.865 0l279.525-279.525L789.172 871.37c22.034 22.034 57.811 22.052 79.865 0s22.034-57.831 0-79.865L589.506 511.974l279.525-279.525c22.052-22.052 22.051-57.812 0-79.865-22.052-22.052-57.811-22.052-79.865 0z" p-id="6425"></path></svg>