<?xml version="1.0" standalone="no"?><!DOCTYPE svg PUBLIC "-//W3C//DTD SVG 1.1//EN" "http://www.w3.org/Graphics/SVG/1.1/DTD/svg11.dtd"><svg t="1571731791669" class="icon" viewBox="0 0 1177 1024" version="1.1" xmlns="http://www.w3.org/2000/svg" p-id="8583" xmlns:xlink="http://www.w3.org/1999/xlink" width="229.8828125" height="200"><defs><style type="text/css"></style></defs><path d="M991.572 462.72l-394.24 364.16-394.24-364.16c-5.719-5.218-13.362-8.414-21.75-8.414-9.349 0-17.77 3.969-23.671 10.314-12.178 12.82-10.898 33.3 1.902 45.46l416 384c6.4 5.76 14.080 8.32 21.76 8.32s15.36-2.56 21.76-8.32l416-384c12.8-12.16 14.080-32 1.92-45.44-5.995-6.234-14.407-10.107-23.723-10.107-8.339 0-15.954 3.103-21.752 8.218z" fill="#444444" p-id="8584"></path><path d="M575.572 561.28c6.4 5.76 14.080 8.32 21.76 8.32s15.36-2.56 21.76-8.32l416-384c12.8-12.16 14.080-32 1.92-45.44-12.16-12.8-32-13.44-45.44-1.92l-394.24 364.16-394.24-364.16c-5.671-5.36-13.343-8.655-21.785-8.655-9.384 0-17.817 4.072-23.629 10.546-12.186 12.829-10.906 33.309 1.894 45.469l416 384z" fill="#444444" p-id="8585"></path></svg>