<svg id="Layer_3" data-name="Layer 3" xmlns="http://www.w3.org/2000/svg" viewBox="0 0 23.47 22.95"><defs></defs><title>矢量智能对象</title><path class="cls-1" d="M98,577.93a.5.5,0,0,1-.5-.53l.23-3.88a.5.5,0,0,1,.15-.32l11.57-11.57a.5.5,0,0,1,.35-.15h0a.5.5,0,0,1,.35.15l3.65,3.65a.5.5,0,0,1,0,.71l-11.57,11.57a.5.5,0,0,1-.32.15l-3.88.23Zm.72-4.16-.18,3.13,3.13-.18,11.08-11.08-2.94-2.94L98.74,573.76Z" transform="translate(-90.49 -561.48)"/><path class="cls-1" d="M111.41,567.82a.5.5,0,0,1-.35-.15l-3.28-3.28a.5.5,0,1,1,.71-.71l3.28,3.28a.5.5,0,0,1-.35.85Z" transform="translate(-90.49 -561.48)"/><path class="cls-1" d="M100.68,575.27a.5.5,0,0,1-.35-.85l9-9a.5.5,0,0,1,.71.71l-9,9a.5.5,0,0,1-.35.15Z" transform="translate(-90.49 -561.48)"/><path class="cls-1" d="M98,577.95a.5.5,0,0,1-.5-.53l.11-1.88a.5.5,0,0,1,.42-.46l.17,0h.21a1.93,1.93,0,0,1,1.44.61,2,2,0,0,1,.49,1.53,2.29,2.29,0,0,1,0,.24.55.55,0,0,1-.47.42l-1.81.11Zm.58-1.91-.05.87.82,0a.94.94,0,0,0-.23-.55.9.9,0,0,0-.54-.28Z" transform="translate(-90.49 -561.48)"/><path class="cls-1" d="M108.67,584.43H90.49V568.63l5.71-5.71h12a.5.5,0,0,1,0,1H96.62L91.49,569v14.38h16.17V571.18a.5.5,0,0,1,1,0v13.25Z" transform="translate(-90.49 -561.48)"/><path class="cls-1" d="M96.91,569.34H91a.5.5,0,0,1,0-1h4.92v-4.92a.5.5,0,0,1,1,0v5.92Z" transform="translate(-90.49 -561.48)"/></svg>