<?xml version="1.0" standalone="no"?><!DOCTYPE svg PUBLIC "-//W3C//DTD SVG 1.1//EN" "http://www.w3.org/Graphics/SVG/1.1/DTD/svg11.dtd"><svg t="1565771150421" class="icon" viewBox="0 0 1024 1024" version="1.1" xmlns="http://www.w3.org/2000/svg" p-id="19981" xmlns:xlink="http://www.w3.org/1999/xlink" width="200" height="200"><defs><style type="text/css"></style></defs><path d="M510.928598 864.776625c-293.371654 0-496.164337-305.915341-496.164336-305.915341-19.957541-25.872251-19.35379-67.852364 0-93.724615 0 0 202.851011-305.913295 496.164336-305.913294 293.310256 0 496.169453 305.913295 496.169454 305.913294 19.950378 25.872251 19.351744 67.852364 0 93.724615 0-0.001023-202.797799 305.915341-496.169454 305.915341z m0-58.797127c111.914906 0 219.74375-51.330062 319.155901-138.346905a841.980433 841.980433 0 0 0 95.086635-98.249675c16.288988-19.872606 27.348881-34.982746 34.55705-45.685505 3.973498-5.28947 4.033873-18.225083-1.919722-26.163893a577.637929 577.637929 0 0 0-32.638351-42.919508c-27.592428-33.513278-59.505255-67.027579-95.148034-98.249675-99.351775-87.016843-207.179596-138.344858-319.095525-138.344858S291.184849 269.347494 191.772698 356.364337a842.314031 842.314031 0 0 0-95.086635 98.249675c-16.288988 19.872606-27.348881 34.983769-34.56012 45.685505-3.968381 5.28947-4.028757 18.225083 1.921769 26.163893 5.28947 7.936763 16.349363 23.046902 32.638351 42.919508 27.587312 33.513278 59.502186 67.029626 95.144964 98.249675 99.353822 87.016843 207.181643 138.346905 319.097571 138.346905z m0-117.591185c-97.79021 0-177.069835-78.963423-177.069834-176.388313 0-97.426937 79.279624-176.390359 177.069834-176.390359s177.069835 78.963423 177.069835 176.390359c0 97.42489-79.280648 176.388313-177.069835 176.388313z m0-58.797128c65.212234 0 118.043487-52.622498 118.043487-117.591185 0-64.971757-52.889581-117.594255-118.043487-117.594255-65.215304 0-118.046556 52.622498-118.046556 117.594255 0 64.968687 52.892651 117.591185 118.046556 117.591185z" fill="#606060" p-id="19982"></path></svg>
