<svg id="Layer_3" data-name="Layer 3" xmlns="http://www.w3.org/2000/svg" viewBox="0 0 17.33 21.53"><defs></defs><title>file</title><path class="cls-1" d="M226.59,583.72a.5.5,0,0,1-.5-.5v-6a.5.5,0,0,1,.5-.5h6a.5.5,0,0,1,0,1h-5.5v5.5a.5.5,0,0,1-.5.5Z" transform="translate(-215.76 -562.19)"/><path class="cls-1" d="M226.59,583.72H216.26a.5.5,0,0,1-.5-.5V562.69a.5.5,0,0,1,.5-.5h16.33a.5.5,0,0,1,.5.5v14.53a.5.5,0,0,1-.15.35l-6,6a.5.5,0,0,1-.35.15Zm-9.83-1h9.62l5.71-5.71V563.19H216.76v19.53Z" transform="translate(-215.76 -562.19)"/><path class="cls-1" d="M225.51,567h-5.87a.5.5,0,0,1,0-1h5.87a.5.5,0,0,1,0,1Z" transform="translate(-215.76 -562.19)"/><path class="cls-1" d="M229.38,569.4h-9.75a.5.5,0,0,1,0-1h9.75a.5.5,0,0,1,0,1Z" transform="translate(-215.76 -562.19)"/><path class="cls-1" d="M229.38,571.81h-9.75a.5.5,0,0,1,0-1h9.75a.5.5,0,0,1,0,1Z" transform="translate(-215.76 -562.19)"/><path class="cls-1" d="M223.71,574.23h-4.08a.5.5,0,1,1,0-1h4.08a.5.5,0,1,1,0,1Z" transform="translate(-215.76 -562.19)"/></svg>