<?xml version="1.0" encoding="utf-8"?>
<!-- Generator: Adobe Illustrator 23.0.0, SVG Export Plug-In . SVG Version: 6.00 Build 0)  -->
<svg version="1.1" id="图层_1" xmlns="http://www.w3.org/2000/svg" xmlns:xlink="http://www.w3.org/1999/xlink" x="0px" y="0px"
	 viewBox="0 0 200 200" style="enable-background:new 0 0 200 200;" xml:space="preserve">
<style type="text/css">
	.st0{fill:none;}
</style>
<g>
	<polygon class="st0" points="122.9,33.4 102.9,45.4 81.7,35.7 86.9,58.4 71.1,75.5 94.3,77.7 105.7,98 114.9,76.5 137.8,72 
		120.2,56.6 	"/>
	<path class="st1" d="M165,5C123.2-11.1,79.8,22.5,37.9,6.9v116.3c41.8,12.8,83.7-17.6,127.1-1.6c15,5,26.7,6.7,26.7-5V43.3
		C190,26.7,180,13.3,165,5z M114.9,76.5L105.7,98L94.3,77.7l-23.2-2.1l15.8-17.1l-5.2-22.7l21.2,9.7l20-11.9l-2.7,23.2L137.8,72
		L114.9,76.5z"/>
	<path class="st1" d="M16.7,0C13.3,0,10,1.7,8.3,6.7V190c0,5,5,10,10,10H20c5,0,10-3.3,10-10v-70c0,0,0,0,0,0V3.1
		C26,1,21.9,0,16.7,0z"/>
</g>
</svg>
