<?xml version="1.0" standalone="no"?><!DOCTYPE svg PUBLIC "-//W3C//DTD SVG 1.1//EN" "http://www.w3.org/Graphics/SVG/1.1/DTD/svg11.dtd"><svg t="1559270961119" class="icon" style="" viewBox="0 0 1024 1024" version="1.1" xmlns="http://www.w3.org/2000/svg" p-id="6627" xmlns:xlink="http://www.w3.org/1999/xlink" width="200" height="200"><defs><style type="text/css"></style></defs><path d="M383.146667 968.448a31.786667 31.786667 0 0 1-31.658667-36.565333l52.394667-363.818667H279.125333a31.914667 31.914667 0 0 1-31.573333-37.376L319.573333 106.666667a32.042667 32.042667 0 0 1 31.573334-26.666667h290.56a32 32 0 0 1 31.146666 39.466667l-61.696 259.2H810.666667a32 32 0 0 1 24.832 52.224L407.978667 956.586667a31.914667 31.914667 0 0 1-24.874667 11.776zM317.013333 503.978667h123.861334a31.914667 31.914667 0 0 1 31.658666 36.608l-41.216 285.866666 312.021334-383.786666h-172.8a32 32 0 0 1-31.061334-39.466667l61.696-259.2H378.197333L317.013333 503.978667z" p-id="6628"></path></svg>