<?xml version="1.0" standalone="no"?><!DOCTYPE svg PUBLIC "-//W3C//DTD SVG 1.1//EN" "http://www.w3.org/Graphics/SVG/1.1/DTD/svg11.dtd"><svg t="1568195714026" class="icon" viewBox="0 0 1024 1024" version="1.1" xmlns="http://www.w3.org/2000/svg" p-id="6499" xmlns:xlink="http://www.w3.org/1999/xlink" width="200" height="200"><defs><style type="text/css"></style></defs><path d="M719.9744 463.3088l-163.0208-146.0736a41.6768 41.6768 0 0 0-54.3232 0 31.9488 31.9488 0 0 0 0 48.6912L665.6 512l-162.9696 146.0736a31.9488 31.9488 0 0 0 0 48.6912 41.6768 41.6768 0 0 0 54.3232 0l163.0208-146.0736a64.0512 64.0512 0 0 0 0-97.3824z m-209.8688 0L347.136 317.2864a41.6768 41.6768 0 0 0-54.3232 0 32.0512 32.0512 0 0 0 0 48.6912L455.7824 512l-162.9696 146.0736a32.0512 32.0512 0 0 0 0 48.6912 41.6768 41.6768 0 0 0 54.3232 0l162.9696-146.0736a63.9488 63.9488 0 0 0 0-97.3824z" p-id="6500"></path></svg>