<svg id="图层_1" data-name="图层 1" xmlns="http://www.w3.org/2000/svg" viewBox="0 0 512 512"><defs><style>.cls-1{fill:#fff;}.cls-2{fill:#cccbca;}.cls-3{fill:#3e4a59;}.cls-4{fill:#272d37;}.cls-5{fill:#eb7356;}</style></defs><title>图标</title><path class="cls-1" d="M210.57,101.86a20.74,20.74,0,0,0-20.67,20.67h0a20.73,20.73,0,0,0,20.67,20.67h82.67a20.73,20.73,0,0,0,20.66-20.67h0a20.73,20.73,0,0,0-20.66-20.67Z"/><path class="cls-1" d="M251.9,238.27,115.8,374.37A41.33,41.33,0,0,0,145,444.93H358.78A41.33,41.33,0,0,0,388,374.37Z"/><rect class="cls-1" x="210.57" y="143.2" width="82.67" height="136.39"/><rect class="cls-2" x="244.67" y="163.87" width="14.47" height="20.67"/><rect class="cls-3" x="229.17" y="101.86" width="45.47" height="62.01"/><rect class="cls-4" x="229.17" y="81.2" width="45.47" height="20.67"/><path class="cls-5" d="M308.27,320.93H195.54L129,387.52A22.73,22.73,0,0,0,145,426.33H358.78a22.73,22.73,0,0,0,16.08-38.8Z"/><path class="cls-1" d="M212.12,381.76a16.54,16.54,0,1,1-16.53-16.53A16.53,16.53,0,0,1,212.12,381.76Z"/><path class="cls-1" d="M279.8,354.51a8.27,8.27,0,1,1-8.26-8.26A8.26,8.26,0,0,1,279.8,354.51Z"/><path class="cls-1" d="M325.29,383.65a5.17,5.17,0,1,1-5.17-5.17A5.17,5.17,0,0,1,325.29,383.65Z"/><path class="cls-5" d="M241.57,290.85a6.2,6.2,0,1,1-6.2-6.2A6.21,6.21,0,0,1,241.57,290.85Z"/><path class="cls-5" d="M271.54,232.07a10.34,10.34,0,1,1-10.34-10.33A10.34,10.34,0,0,1,271.54,232.07Z"/><path class="cls-1" d="M301.85,401.05a10.34,10.34,0,1,1-10.33-10.34A10.33,10.33,0,0,1,301.85,401.05Z"/></svg>