<svg id="图层_1" data-name="图层 1" xmlns="http://www.w3.org/2000/svg" viewBox="0 0 512 512"><defs><style>.cls-1{fill:#272d37;}.cls-2{fill:#3e4a59;}.cls-3{fill:#eb7356;}.cls-4{fill:#db6547;}.cls-5{fill:#fff;}</style></defs><title>图标</title><rect class="cls-1" x="170.79" y="190.88" width="180.14" height="180.13"/><path class="cls-1" d="M350.93,371c0,24.85-40.33,45-90.07,45s-90.07-20.17-90.07-45,40.33-45,90.07-45S350.93,346.13,350.93,371Z"/><path class="cls-2" d="M260.86,386c-49.74,0-90.07-20.15-90.07-45v30c0,24.85,40.33,45,90.07,45s90.07-20.17,90.07-45V341C350.93,365.85,310.6,386,260.86,386Z"/><path class="cls-2" d="M268,134.42a16,16,0,0,0-14.32,0L65,228.75a8,8,0,0,0,0,14.32L253.7,337.41a16,16,0,0,0,14.32,0l188.67-94.34a8,8,0,0,0,0-14.32Z"/><polygon class="cls-3" points="370.18 286.31 380.91 280.94 263 222.01 258.72 230.6 370.18 286.31"/><path class="cls-1" d="M278.88,226.3c0,5-8.08,9-18,9s-18-4-18-9,8.07-9,18-9S278.88,221.32,278.88,226.3Z"/><polygon class="cls-4" points="370.18 357.66 380.91 352.29 380.91 280.94 370.18 286.31 370.18 357.66"/><polygon class="cls-5" points="370.18 371.01 380.91 365.64 380.91 352.29 370.18 357.66 370.18 371.01"/></svg>