<svg id="图层_1" data-name="图层 1" xmlns="http://www.w3.org/2000/svg" viewBox="0 0 512 512"><defs><style>.cls-1{fill:#eb7356;}.cls-2{fill:#cc5838;}.cls-3{fill:#f3d37e;}.cls-4{fill:#f0c464;}.cls-5{fill:#ecb449;}.cls-6{fill:#fff;}.cls-7{fill:#e6e5e5;}.cls-8{fill:#3e4a59;}</style></defs><title>图标</title><path class="cls-1" d="M301.1,435.72a32.76,32.76,0,0,1-32.74,32.74H237.82a32.74,32.74,0,0,1-32.74-32.74v-4.27h96Z"/><path class="cls-2" d="M269.09,431.45v4.27a32.65,32.65,0,0,1-32,32.67c.25,0,.49.07.74.07h30.54a32.76,32.76,0,0,0,32.74-32.74v-4.27Z"/><rect class="cls-3" x="205.13" y="126.64" width="31.98" height="272.85"/><rect class="cls-4" x="237.11" y="126.64" width="31.99" height="272.85"/><rect class="cls-5" x="269.1" y="126.64" width="32" height="272.85"/><polygon class="cls-6" points="301.14 126.64 269.07 71.22 237.14 71.22 205.14 126.64 301.14 126.64"/><polygon class="cls-7" points="301.14 126.64 269.1 126.64 258.41 71.22 269.07 71.22 301.14 126.64"/><polygon class="cls-8" points="269.07 71.22 253.06 43.54 237.14 71.22 269.07 71.22"/><rect class="cls-7" x="269.09" y="399.49" width="32.01" height="31.96"/><polygon class="cls-6" points="269.1 431.45 205.13 431.47 205.13 399.49 269.1 399.49 269.1 431.45"/><polygon class="cls-1" points="269.05 431.47 269.05 431.49 269.07 431.49 269.05 431.47"/></svg>