<svg id="图层_1" data-name="图层 1" xmlns="http://www.w3.org/2000/svg" viewBox="0 0 512 512"><defs><style>.cls-1{fill:#fff;}.cls-2{fill:#3e4a59;}.cls-3{fill:#eb7356;}.cls-4{fill:#db6547;}</style></defs><title>图标</title><path class="cls-1" d="M384.15,412.79a37.62,37.62,0,0,1-37.63,37.62H170.92a37.62,37.62,0,0,1-37.64-37.62V99.22H384.15Z"/><path class="cls-2" d="M133.28,412.79a37.62,37.62,0,0,0,37.64,37.62h175.6a37.62,37.62,0,0,0,37.63-37.62Z"/><path class="cls-3" d="M384.15,161.93a37.64,37.64,0,0,1-37.63,37.63H170.92a37.64,37.64,0,0,1-37.64-37.63V99.22H384.15Z"/><path class="cls-3" d="M346.52,287.36H170.92v81.53a18.8,18.8,0,0,0,18.82,18.81h138a18.8,18.8,0,0,0,18.82-18.81Z"/><rect class="cls-2" x="321.43" y="149.39" width="25.08" height="112.89"/><rect class="cls-2" x="170.92" y="149.39" width="25.09" height="112.89"/><rect class="cls-3" x="158.37" y="224.64" width="50.17" height="25.09"/><rect class="cls-3" x="308.89" y="224.64" width="50.17" height="25.09"/><rect class="cls-4" x="170.92" y="287.36" width="175.6" height="25.09"/><path class="cls-2" d="M409.23,362.61a25.09,25.09,0,0,1-25.08,25.09h0V287.36h0a25.09,25.09,0,0,1,25.08,25.08Z"/><path class="cls-2" d="M133.28,387.7h0a25.09,25.09,0,0,1-25.08-25.09V312.44a25.09,25.09,0,0,1,25.08-25.08h0Z"/><path class="cls-2" d="M311.32,71.69a34.23,34.23,0,0,0-24.38-10.1H230.49A34.5,34.5,0,0,0,196,96.08v3.14h18.82V96.08A15.67,15.67,0,0,1,230.49,80.4h56.45a15.65,15.65,0,0,1,15.67,15.68v3.14h18.82V96.08A34.21,34.21,0,0,0,311.32,71.69Z"/></svg>