<svg id="图层_1" data-name="图层 1" xmlns="http://www.w3.org/2000/svg" viewBox="0 0 512 512"><defs><style>.cls-1{fill:#3e4a59;}.cls-2{fill:#333c48;}.cls-3{fill:#92cca2;}.cls-4{fill:#fff;}</style></defs><title>图标</title><rect class="cls-1" x="140.24" y="362.31" width="28.85" height="86.57"/><rect class="cls-1" x="365.29" y="362.31" width="28.85" height="86.57"/><rect class="cls-1" x="169.09" y="391.17" width="196.2" height="28.85"/><path class="cls-1" d="M451.85,333.46H82.53V126.68A14.44,14.44,0,0,1,97,112.25H437.43a14.43,14.43,0,0,1,14.42,14.43Z"/><path class="cls-2" d="M466.28,347.88a14.47,14.47,0,0,1-14.43,14.43H82.53a14.46,14.46,0,0,1-14.42-14.43h0a14.46,14.46,0,0,1,14.42-14.42H451.85a14.47,14.47,0,0,1,14.43,14.42Z"/><rect class="cls-3" x="111.39" y="141.11" width="311.61" height="192.35"/><rect class="cls-4" x="197.52" y="243.68" width="43.19" height="11.2"/><rect class="cls-4" x="197.52" y="219.69" width="43.19" height="11.2"/><path class="cls-4" d="M311.1,266.88H299.89V225.29a6.4,6.4,0,0,0-1.87-4.53,6.41,6.41,0,0,0-9,0,6.41,6.41,0,0,0-1.88,4.53v5.59H275.9v-5.59a17.6,17.6,0,0,1,35.2,0Z"/><path class="cls-4" d="M287.09,266.88H275.9V225.29a6.38,6.38,0,0,0-6.4-6.4,6.38,6.38,0,0,0-6.39,6.4v41.59H251.9V225.29a17.6,17.6,0,1,1,35.19,0Z"/><path class="cls-4" d="M186.32,266.88H148.73a5.59,5.59,0,0,1-5.6-5.6v-48a5.6,5.6,0,0,1,5.6-5.6h37.59v11.2h-32v36.79h32Z"/><rect class="cls-4" x="143.13" y="231.69" width="27.2" height="11.19"/><path class="cls-4" d="M376.15,210.56a3,3,0,0,1,3-3h3.79a8.33,8.33,0,0,0,0-16.66h-3.79a8.35,8.35,0,0,0-8.34,8.34h5.34a3,3,0,0,1,3-3h3.79a3,3,0,0,1,0,6h-3.79a8.36,8.36,0,0,0-8.34,8.34v5.66a2.68,2.68,0,0,0,2.67,2.67h17.78v-5.34H376.15Z"/><path class="cls-4" d="M347.9,266.88h-8a17.6,17.6,0,0,1-17.59-17.6v-24a17.6,17.6,0,0,1,17.59-17.6h8a17.6,17.6,0,0,1,17.59,17.6v5.59h-11.2v-5.59a6.4,6.4,0,0,0-6.39-6.4h-8a6.38,6.38,0,0,0-6.4,6.4v24a6.4,6.4,0,0,0,6.4,6.4h8a6.42,6.42,0,0,0,6.39-6.4v-5.6h11.2v5.6a17.6,17.6,0,0,1-17.59,17.6Z"/><rect class="cls-4" x="350.94" y="322.26" width="43.19" height="11.2"/></svg>