<svg id="图层_1" data-name="图层 1" xmlns="http://www.w3.org/2000/svg" viewBox="0 0 512 512"><defs><style>.cls-1{fill:#f3d37e;}.cls-2{fill:#f0c464;}.cls-3{fill:#3e4a59;}.cls-4{fill:#eb7356;}.cls-5{fill:#db6547;}.cls-6{fill:#cc5838;}.cls-7{fill:#fff;}.cls-8{fill:#e6e5e5;}.cls-9{fill:#272d37;}</style></defs><title>图标</title><path class="cls-1" d="M256,126.86A157.88,157.88,0,0,0,98.12,284.74h63.15a94.73,94.73,0,1,1,189.46,0h63.15A157.88,157.88,0,0,0,256,126.86Z"/><rect class="cls-1" x="66.55" y="284.74" width="378.91" height="63.15"/><rect class="cls-2" x="66.55" y="316.31" width="378.91" height="31.58"/><rect class="cls-3" x="76.26" y="332.1" width="9.72" height="15.79"/><rect class="cls-3" x="95.69" y="332.1" width="9.72" height="15.79"/><rect class="cls-3" x="115.12" y="332.1" width="9.72" height="15.79"/><rect class="cls-3" x="134.56" y="332.1" width="9.71" height="15.79"/><rect class="cls-3" x="153.98" y="332.1" width="9.72" height="15.79"/><rect class="cls-3" x="173.42" y="332.1" width="9.71" height="15.79"/><rect class="cls-3" x="192.84" y="332.1" width="9.72" height="15.79"/><rect class="cls-3" x="212.28" y="332.1" width="9.71" height="15.79"/><rect class="cls-3" x="231.71" y="332.1" width="9.71" height="15.79"/><rect class="cls-3" x="251.14" y="332.1" width="9.72" height="15.79"/><rect class="cls-3" x="270.57" y="332.1" width="9.72" height="15.79"/><rect class="cls-3" x="290" y="332.1" width="9.72" height="15.79"/><rect class="cls-3" x="309.43" y="332.1" width="9.71" height="15.79"/><rect class="cls-3" x="328.87" y="332.1" width="9.7" height="15.79"/><rect class="cls-3" x="348.29" y="332.1" width="9.71" height="15.79"/><rect class="cls-3" x="367.72" y="332.1" width="9.71" height="15.79"/><rect class="cls-3" x="387.15" y="332.1" width="9.72" height="15.79"/><rect class="cls-3" x="406.59" y="332.1" width="9.72" height="15.79"/><rect class="cls-3" x="426.02" y="332.1" width="9.72" height="15.79"/><path class="cls-2" d="M382.3,284.74a126.3,126.3,0,0,0-252.6,0h31.57a94.73,94.73,0,1,1,189.46,0Z"/><rect class="cls-4" x="93.86" y="379.45" width="351.59" height="10.51"/><rect class="cls-5" x="93.86" y="389.96" width="351.59" height="10.53"/><rect class="cls-6" x="93.86" y="400.48" width="351.59" height="10.52"/><polygon class="cls-7" points="93.86 411.01 75.64 400.46 75.64 389.97 93.86 379.45 93.86 411.01"/><polygon class="cls-8" points="93.86 411.01 93.86 400.48 75.64 396.96 75.64 400.46 93.86 411.01"/><polygon class="cls-9" points="75.64 400.46 66.55 395.2 75.64 389.97 75.64 400.46"/><rect class="cls-8" x="416.3" y="400.46" width="9.71" height="10.53"/><rect class="cls-7" x="416.3" y="379.45" width="9.71" height="21.03"/></svg>