<svg id="图层_1" data-name="图层 1" xmlns="http://www.w3.org/2000/svg" viewBox="0 0 512 512"><defs><style>.cls-1{fill:#3e4a59;}.cls-2{fill:#fff;}.cls-3{fill:#e6e5e5;}.cls-4{fill:#d9d8d7;}.cls-5{fill:#f3d37e;}.cls-6{fill:#eb7356;}</style></defs><title>图标</title><path class="cls-1" d="M97.47,178.76A21.37,21.37,0,0,0,76.1,200.12V371a21.37,21.37,0,0,0,21.37,21.36h143.1a21.36,21.36,0,0,0,42.72,0H426.4A21.36,21.36,0,0,0,447.76,371V200.12a21.36,21.36,0,0,0-21.36-21.36Z"/><path class="cls-2" d="M240.57,157.4H97.47V371h143.1a21.36,21.36,0,0,1,21.36,21.36V178.76A21.37,21.37,0,0,0,240.57,157.4Z"/><path class="cls-2" d="M283.29,157.4H426.4V371H283.29a21.36,21.36,0,0,0-21.36,21.36V178.76A21.37,21.37,0,0,1,283.29,157.4Z"/><path class="cls-3" d="M240.57,157.4V371a21.36,21.36,0,0,1,21.36,21.36V178.76A21.37,21.37,0,0,0,240.57,157.4Z"/><rect class="cls-4" x="118.83" y="239.07" width="100.39" height="10.05"/><rect class="cls-4" x="118.83" y="259.17" width="100.39" height="10.05"/><rect class="cls-4" x="118.83" y="279.27" width="100.39" height="10.05"/><rect class="cls-4" x="118.83" y="299.38" width="100.39" height="10.05"/><rect class="cls-4" x="118.83" y="319.48" width="100.39" height="10.05"/><rect class="cls-4" x="118.83" y="339.59" width="100.39" height="10.05"/><rect class="cls-4" x="304.65" y="178.76" width="100.39" height="10.05"/><rect class="cls-4" x="304.65" y="198.86" width="100.39" height="10.05"/><rect class="cls-4" x="304.65" y="218.96" width="100.39" height="10.05"/><rect class="cls-4" x="304.65" y="239.07" width="100.39" height="10.05"/><rect class="cls-4" x="304.65" y="259.17" width="100.39" height="10.05"/><rect class="cls-4" x="304.65" y="279.27" width="100.39" height="10.05"/><rect class="cls-4" x="304.65" y="299.38" width="100.39" height="10.05"/><rect class="cls-4" x="304.65" y="319.48" width="100.39" height="10.05"/><rect class="cls-4" x="304.65" y="339.59" width="100.39" height="10.05"/><rect class="cls-5" x="118.83" y="178.76" width="100.39" height="50.26"/><polygon class="cls-6" points="284.55 157.4 284.55 359.69 284.55 359.69 294.6 349.64 304.65 359.69 304.65 157.4 284.55 157.4"/></svg>