<svg id="图层_1" data-name="图层 1" xmlns="http://www.w3.org/2000/svg" xmlns:xlink="http://www.w3.org/1999/xlink" viewBox="0 0 512 512"><defs><style>.cls-1{fill:#cccbca;}.cls-2{fill:#eb7356;}.cls-3{fill:#db6547;}.cls-4{fill:#fff;}.cls-5{fill:#3e4a59;}.cls-6{clip-path:url(#clip-path);}.cls-7{fill:#84cedd;}.cls-8{clip-path:url(#clip-path-2);}</style><clipPath id="clip-path"><path class="cls-1" d="M150.94,302.18a27.81,27.81,0,1,1,0-55.61H392.38v55.61Z"/></clipPath><clipPath id="clip-path-2"><path class="cls-1" d="M409.36,184.89H257.75v44.84H409.36a4.42,4.42,0,0,0,3.3-1.51A5.65,5.65,0,0,0,414,224.5V190.13a5.57,5.57,0,0,0-1.37-3.71A4.37,4.37,0,0,0,409.36,184.89Z"/></clipPath></defs><title>图标</title><rect class="cls-2" x="74.65" y="311.68" width="366.22" height="64.42"/><rect class="cls-3" x="113.64" y="311.68" width="288.23" height="64.42"/><rect class="cls-4" x="166.2" y="348.19" width="183.11" height="8.61"/><rect class="cls-4" x="166.2" y="330.97" width="91.56" height="8.61"/><path class="cls-5" d="M150.94,302.18a27.81,27.81,0,1,1,0-55.61H401.87v-9.5H150.94a37.31,37.31,0,0,0,0,74.61H401.87v-9.5Z"/><path class="cls-1" d="M150.94,302.18a27.81,27.81,0,1,1,0-55.61H392.38v55.61Z"/><g class="cls-6"><rect class="cls-4" x="123.14" y="246.57" width="269.24" height="2.47"/><rect class="cls-4" x="123.14" y="251.88" width="269.24" height="2.49"/><rect class="cls-4" x="123.14" y="257.2" width="269.24" height="2.46"/><rect class="cls-4" x="123.14" y="262.52" width="269.24" height="2.46"/><rect class="cls-4" x="123.14" y="267.83" width="269.24" height="2.46"/><rect class="cls-4" x="123.14" y="273.14" width="269.24" height="2.47"/><rect class="cls-4" x="123.14" y="278.45" width="269.24" height="2.48"/><rect class="cls-4" x="123.14" y="283.76" width="269.24" height="2.48"/><rect class="cls-4" x="123.14" y="289.07" width="269.24" height="2.48"/><rect class="cls-4" x="123.14" y="294.4" width="269.24" height="2.47"/><rect class="cls-4" x="123.14" y="299.71" width="269.24" height="2.47"/></g><path class="cls-7" d="M417.69,181.23a12.54,12.54,0,0,0-8.91-3.68H94.14v7.34H408.78a5.24,5.24,0,0,1,5.25,5.24V224.5a5.21,5.21,0,0,1-5.25,5.23H94.14v7.34H408.78a12.58,12.58,0,0,0,12.59-12.57V190.13A12.54,12.54,0,0,0,417.69,181.23Z"/><path class="cls-4" d="M101.48,229.73V184.89h307.3a5.24,5.24,0,0,1,5.25,5.24V224.5a5.21,5.21,0,0,1-5.25,5.23Z"/><path class="cls-1" d="M409.36,184.89H257.75v44.84H409.36a4.42,4.42,0,0,0,3.3-1.51A5.65,5.65,0,0,0,414,224.5V190.13a5.57,5.57,0,0,0-1.37-3.71A4.37,4.37,0,0,0,409.36,184.89Z"/><g class="cls-8"><rect class="cls-4" x="255.48" y="182.42" width="165.07" height="2.21"/><rect class="cls-4" x="255.48" y="187.17" width="165.07" height="2.22"/><rect class="cls-4" x="255.48" y="191.92" width="165.07" height="2.2"/><rect class="cls-4" x="255.48" y="196.67" width="165.07" height="2.2"/><rect class="cls-4" x="255.48" y="201.41" width="165.07" height="2.2"/><rect class="cls-4" x="255.48" y="206.15" width="165.07" height="2.2"/><rect class="cls-4" x="255.48" y="210.88" width="165.07" height="2.21"/><rect class="cls-4" x="255.48" y="215.63" width="165.07" height="2.21"/><rect class="cls-4" x="255.48" y="220.37" width="165.07" height="2.22"/><rect class="cls-4" x="255.48" y="225.12" width="165.07" height="2.21"/><rect class="cls-4" x="255.48" y="229.87" width="165.07" height="2.2"/></g><polygon class="cls-2" points="382.81 215.63 365.1 215.63 365.1 255.56 373.94 246.7 382.81 255.56 382.81 215.63"/></svg>