<svg id="图层_1" data-name="图层 1" xmlns="http://www.w3.org/2000/svg" viewBox="0 0 512 512"><defs><style>.cls-1{fill:#3e4a59;}.cls-2{fill:#eb7356;}.cls-3{fill:#fff;}</style></defs><title>图标</title><path class="cls-1" d="M123.92,427.5a9.94,9.94,0,0,1-7-17l31.68-31.67a9.93,9.93,0,1,1,14.05,14.05L131,424.59A9.92,9.92,0,0,1,123.92,427.5Z"/><path class="cls-1" d="M356.41,376a9.94,9.94,0,0,0-7,17l31.68,31.68a9.94,9.94,0,0,0,14.05-14.06l-31.68-31.67A9.9,9.9,0,0,0,356.41,376Z"/><path class="cls-1" d="M356.41,195a9.94,9.94,0,0,1-7-17l28.11-28.12A9.94,9.94,0,0,1,391.55,164l-28.11,28.12A9.94,9.94,0,0,1,356.41,195Z"/><path class="cls-1" d="M155.59,195a9.94,9.94,0,0,1-7-2.91L120.45,164a9.94,9.94,0,1,1,14.06-14.06l28.11,28.12a9.94,9.94,0,0,1-7,17Z"/><circle class="cls-2" cx="256" cy="285.48" r="142"/><path class="cls-3" d="M108.4,137.88a56.81,56.81,0,0,0,0,80.33l80.32-80.33A56.79,56.79,0,0,0,108.4,137.88Z"/><path class="cls-3" d="M403.6,137.88a56.79,56.79,0,0,0-80.32,0l80.32,80.33A56.81,56.81,0,0,0,403.6,137.88Z"/><ellipse class="cls-3" cx="256" cy="285.48" rx="113.6" ry="113.6"/><rect class="cls-1" x="251.03" y="181.82" width="9.94" height="19.88"/><rect class="cls-1" x="152.34" y="280.51" width="19.88" height="9.94"/><rect class="cls-1" x="251.03" y="369.26" width="9.94" height="19.88"/><rect class="cls-1" x="339.78" y="280.51" width="19.88" height="9.94"/><path class="cls-1" d="M256,306.79a21.31,21.31,0,1,1,21.3-21.31A21.33,21.33,0,0,1,256,306.79Zm0-32.67a11.37,11.37,0,1,0,11.36,11.36A11.38,11.38,0,0,0,256,274.12Z"/><path class="cls-1" d="M267.55,278.91a5,5,0,0,1-3.52-8.49l32.13-32.13a5,5,0,0,1,7,7l-32.13,32.13A5,5,0,0,1,267.55,278.91Z"/><path class="cls-2" d="M256,335.89a5,5,0,0,1-5-5V285.48a5,5,0,1,1,9.94,0v45.44A5,5,0,0,1,256,335.89Z"/></svg>