<svg id="Layer_3" data-name="Layer 3" xmlns="http://www.w3.org/2000/svg" viewBox="0 0 22.25 20.07"><defs></defs><title>message</title><path class="cls-1" d="M340.45,459.36l-.82,0a.5.5,0,0,1-.18-.95,6.42,6.42,0,0,0,2.7-2.4c-3.59-1.53-5.89-4.56-5.89-7.82,0-4.89,5-8.87,11.12-8.87s11.12,4,11.12,8.87-5,8.87-11.12,8.87l-.64,0a8.92,8.92,0,0,1-6.29,2.34Zm6.93-19.07c-5.58,0-10.12,3.53-10.12,7.87,0,3,2.26,5.79,5.76,7.1a.5.5,0,0,1,.27.69l-.06.13c-.05.11-.11.23-.17.34a7.17,7.17,0,0,1-1.64,1.9,7.58,7.58,0,0,0,4.78-2.16.52.52,0,0,1,.39-.15c.27,0,.53,0,.8,0,5.58,0,10.12-3.53,10.12-7.87s-4.54-7.87-10.12-7.87Z" transform="translate(-336.25 -439.29)"/><path class="cls-1" d="M342.91,448.06a.46.46,0,1,1-.46.46.46.46,0,0,1,.46-.46m0-1a1.46,1.46,0,1,0,1.46,1.46,1.46,1.46,0,0,0-1.46-1.46Z" transform="translate(-336.25 -439.29)"/><path class="cls-1" d="M347.38,448.06a.46.46,0,1,1-.46.46.46.46,0,0,1,.46-.46m0-1a1.46,1.46,0,1,0,1.46,1.46,1.46,1.46,0,0,0-1.46-1.46Z" transform="translate(-336.25 -439.29)"/><path class="cls-1" d="M351.85,448.06a.46.46,0,1,1-.46.46.46.46,0,0,1,.46-.46m0-1a1.46,1.46,0,1,0,1.46,1.46,1.46,1.46,0,0,0-1.46-1.46Z" transform="translate(-336.25 -439.29)"/></svg>