<?xml version="1.0" standalone="no"?><!DOCTYPE svg PUBLIC "-//W3C//DTD SVG 1.1//EN" "http://www.w3.org/Graphics/SVG/1.1/DTD/svg11.dtd"><svg t="1560214819753" class="icon" style="" viewBox="0 0 1024 1024" version="1.1" xmlns="http://www.w3.org/2000/svg" p-id="5468" xmlns:xlink="http://www.w3.org/1999/xlink" width="200" height="200"><defs><style type="text/css"></style></defs><path d="M792.86784 1021.44h-563.2c-64.93184 0-117.76-52.82304-117.76-117.76v-783.36c0-64.93184 52.82816-117.76 117.76-117.76h563.2c64.93696 0 117.76 52.82816 117.76 117.76v783.36c0 64.93696-52.82304 117.76-117.76 117.76z m-563.2-988.16c-47.99488 0-87.04 39.04512-87.04 87.04v783.36c0 47.99488 39.04512 87.04 87.04 87.04h563.2c47.99488 0 87.04-39.04512 87.04-87.04v-783.36c0-47.99488-39.04512-87.04-87.04-87.04h-563.2z" fill="#231815" p-id="5469"></path><path d="M610.25792 870.08256H412.27776a20.48 20.48 0 0 1 0-40.96h197.98016a20.48 20.48 0 0 1 0 40.96z" fill="#231815" p-id="5470"></path></svg>