<?xml version="1.0" standalone="no"?><!DOCTYPE svg PUBLIC "-//W3C//DTD SVG 1.1//EN" "http://www.w3.org/Graphics/SVG/1.1/DTD/svg11.dtd"><svg t="1565771124981" class="icon" viewBox="0 0 1024 1024" version="1.1" xmlns="http://www.w3.org/2000/svg" p-id="19228" xmlns:xlink="http://www.w3.org/1999/xlink" width="200" height="200"><defs><style type="text/css"></style></defs><path d="M512 928a31.913 31.913 0 0 1-26.016-13.408l-64.896-90.848C213.344 787.168 64 630.976 64 448 64 236.256 264.96 64 512 64s448 172.256 448 384c0 183.008-149.344 339.168-357.056 375.712l-64.896 90.88A32.016 32.016 0 0 1 512 928z m0-800c-211.744 0-384 143.552-384 320 0 154.976 132.928 287.328 316.064 314.656a32.038 32.038 0 0 1 21.312 13.056L512 840.928l46.624-65.248a31.848 31.848 0 0 1 21.312-13.056C763.072 735.328 896 603.008 896 448c0-176.448-172.256-320-384-320zM288.032 512c-35.296 0-64-28.704-64-64s28.704-64 64-64 64 28.704 64 64-28.704 64-64 64z m0.032-64H288l0.032 32 0.032-32z m447.968 64c-35.296 0-64-28.704-64-64s28.704-64 64-64 64 28.704 64 64-28.704 64-64 64z m0.032-64H736l0.032 32 0.032-32z m-224.032 64c-35.296 0-64-28.704-64-64s28.704-64 64-64 64 28.704 64 64-28.704 64-64 64z m0.032-64H512l0.032 32 0.032-32z" fill="#666666" p-id="19229"></path></svg>