<?xml version="1.0" standalone="no"?><!DOCTYPE svg PUBLIC "-//W3C//DTD SVG 1.1//EN" "http://www.w3.org/Graphics/SVG/1.1/DTD/svg11.dtd"><svg t="1560214789806" class="icon" style="" viewBox="0 0 1024 1024" version="1.1" xmlns="http://www.w3.org/2000/svg" p-id="5231" xmlns:xlink="http://www.w3.org/1999/xlink" width="200" height="200"><defs><style type="text/css"></style></defs><path d="M481.28 624.64c-13.653 0-23.893-6.827-37.547-20.48L334.507 494.933c-6.827-6.826-6.827-20.48 0-27.306 6.826-6.827 20.48-6.827 27.306 0L471.04 576.853c6.827 6.827 6.827 6.827 10.24 6.827 0 0 3.413 0 6.827-6.827 6.826-6.826 204.8-208.213 215.04-218.453 6.826-6.827 20.48-6.827 27.306 0 6.827 6.827 6.827 20.48 0 27.307-71.68 71.68-208.213 211.626-215.04 218.453-10.24 13.653-20.48 20.48-34.133 20.48z" p-id="5232"></path><path d="M515.413 962.56c-54.613 0-109.226-27.307-133.12-40.96l-3.413-3.413C191.147 808.96 126.293 669.013 119.467 651.947 98.987 604.16 102.4 539.307 102.4 535.893V160.427h30.72c201.387 0 368.64-122.88 368.64-126.294l13.653-10.24 13.654 10.24C675.84 150.187 843.093 160.427 890.88 160.427h37.547v389.12c0 54.613-20.48 109.226-30.72 129.706-44.374 85.334-112.64 139.947-143.36 163.84-3.414 3.414-6.827 6.827-10.24 6.827-109.227 92.16-208.214 112.64-228.694 112.64zM143.36 204.8v334.507s-3.413 58.026 17.067 98.986c6.826 13.654 64.853 143.36 242.346 245.76 20.48 10.24 68.267 34.134 116.054 37.547 3.413 0 95.573-10.24 204.8-98.987 3.413-3.413 6.826-3.413 10.24-6.826 27.306-20.48 92.16-71.68 133.12-150.187 6.826-13.653 27.306-64.853 27.306-112.64V204.8c-54.613 0-221.866-10.24-372.053-126.293-51.2 30.72-197.973 122.88-378.88 126.293z" p-id="5233"></path></svg>