<?xml version="1.0" standalone="no"?><!DOCTYPE svg PUBLIC "-//W3C//DTD SVG 1.1//EN" "http://www.w3.org/Graphics/SVG/1.1/DTD/svg11.dtd"><svg t="1551691941710" class="icon" style="" viewBox="0 0 1090 1024" version="1.1" xmlns="http://www.w3.org/2000/svg" p-id="2045" xmlns:xlink="http://www.w3.org/1999/xlink" width="212.890625" height="200"><defs><style type="text/css"></style></defs><path d="M593.171594 885.655211c-27.224117-15.985905-70.975016-16.226295-98.559717 0L291.542802 1004.828332c-72.176963 42.428756-115.687472 10.57714-97.057282-71.09521l51.683754-226.567154c6.9112-30.529473-6.370323-71.756282-30.469376-92.670173L38.292408 460.345994c-63.102258-54.808818-46.875963-105.410819 37.140186-113.163382l236.062541-21.63506c31.010252-2.824577 66.107127-28.06548 78.847773-57.212713L483.253471 55.109305c33.474245-76.924657 87.742187-76.924657 121.276529 0l92.910563 213.345728c12.500257 28.726552 47.777424 54.328039 78.847773 57.152617l236.002444 21.63506c83.655564 7.692466 99.881859 58.715148 37.200283 113.163382l-177.40749 154.089703c-23.798566 20.613404-37.50077 61.720018-30.469376 92.670173l51.683754 226.567154c18.63019 81.672351-24.519734 113.704259-97.057282 71.09521L593.111497 885.655211z" fill="#F7BA2A" p-id="2046"></path></svg>