<?xml version="1.0" standalone="no"?><!DOCTYPE svg PUBLIC "-//W3C//DTD SVG 1.1//EN" "http://www.w3.org/Graphics/SVG/1.1/DTD/svg11.dtd"><svg t="1559638447091" class="icon" style="" viewBox="0 0 1024 1024" version="1.1" xmlns="http://www.w3.org/2000/svg" p-id="2117" xmlns:xlink="http://www.w3.org/1999/xlink" width="200" height="200"><defs><style type="text/css"></style></defs><path d="M981.6 453.7H41.5c-15.7 0-29.8-8.3-36.5-22.4-7.5-13.3-5.8-29.8 2.5-43.1l182.4-265.3c13.3-19.1 39-24 58-10.8 19.1 13.3 23.2 39 10.8 58L120.2 370.8h861.4c23.2 0 41.5 18.2 41.5 41.4-0.1 23.3-19.1 41.5-41.5 41.5zM746.1 918.8c-9.9 0-20.7-4.1-29-11.6-16.6-15.8-16.6-42.3-0.8-58.9L883.8 675H41.5C18.2 675.1 0 656.9 0 633.6s18.2-41.4 41.5-41.4h940.1c16.6 0 31.5 9.9 38.1 24.9 6.6 14.9 3.3 33.2-8.3 44.8L776.8 905.6c-9.1 9.1-19.9 13.2-30.7 13.2z m0 0" p-id="2118"></path></svg>