<?xml version="1.0" standalone="no"?><!DOCTYPE svg PUBLIC "-//W3C//DTD SVG 1.1//EN" "http://www.w3.org/Graphics/SVG/1.1/DTD/svg11.dtd"><svg t="1559271982507" class="icon" style="" viewBox="0 0 1024 1024" version="1.1" xmlns="http://www.w3.org/2000/svg" p-id="10431" xmlns:xlink="http://www.w3.org/1999/xlink" width="200" height="200"><defs><style type="text/css"></style></defs><path d="M512 0C273.569254 0 80.626903 26.833042 80.626903 215.686549v512.127776c0 104.009983 84.587971 188.597954 188.853506 188.597954l-81.010232 80.754679v26.833042h647.315199v-26.833042L754.775143 916.412279c104.009983 0 188.853506-84.587971 188.853507-188.597954V215.686549C943.62865 26.833042 750.430746 0 512 0z m-242.519591 808.569004c-44.721737 0-81.010232-36.032942-81.010232-80.754679s36.032942-80.754679 81.010232-80.754679c44.721737 0 81.010232 36.032942 81.010232 80.754679-0.255553 44.721737-36.288495 80.754679-81.010232 80.754679z m188.597954-323.27427H188.470177V215.686549h269.608186v269.608185zM754.775143 808.569004c-44.721737 0-81.010232-36.032942-81.010232-80.754679s36.032942-80.754679 81.010232-80.754679c44.721737 0 81.010232 36.032942 81.010233 80.754679s-36.288495 80.754679-81.010233 80.754679z m81.010233-323.27427H565.921637V215.686549h269.608186v269.608185h0.255553z" p-id="10432"></path></svg>