<svg id="Layer_3" data-name="Layer 3" xmlns="http://www.w3.org/2000/svg" viewBox="0 0 16.28 22.14"><defs></defs><title>user</title><path class="cls-1" d="M469.8,262a4.92,4.92,0,1,1,4.3-4.88,4.62,4.62,0,0,1-4.3,4.88Zm0-8.76a3.93,3.93,0,1,0,3.3,3.88,3.63,3.63,0,0,0-3.3-3.88Z" transform="translate(-461.57 -252.2)"/><path class="cls-1" d="M477,274.34H462.4a.5.5,0,0,1-.5-.47l-.32-4.72a4.21,4.21,0,0,1,2.62-3.87,16.43,16.43,0,0,1,11,0,4.19,4.19,0,0,1,2.62,3.87l-.32,4.72a.5.5,0,0,1-.5.47Zm-14.16-1h13.7l.29-4.25a3.21,3.21,0,0,0-2-2.87,15.44,15.44,0,0,0-10.34,0,3.22,3.22,0,0,0-2,2.87l.29,4.25Z" transform="translate(-461.57 -252.2)"/></svg>